<?xml version="1.0" encoding="iso-8859-1"?>
<!-- Generator: Adobe Illustrator 19.0.0, SVG Export Plug-In . SVG Version: 6.00 Build 0)  -->
<svg version="1.1" id="Capa_1" xmlns="http://www.w3.org/2000/svg" xmlns:xlink="http://www.w3.org/1999/xlink" x="0px" y="0px"
	 viewBox="0 0 504.123 504.123" style="enable-background:new 0 0 504.123 504.123;" xml:space="preserve">
<circle style="fill:#2AA0DA;" cx="252.062" cy="252.062" r="252.062"/>
<rect x="22.843" y="136.271" style="fill:#E1E6E8;" width="457.649" height="359.975"/>
<path style="fill:#183651;" d="M481.28,504.123H22.843c-4.726,0-7.877-3.151-7.877-7.877V136.271c0-4.726,3.151-7.877,7.877-7.877
	h457.649c4.726,0,7.877,3.151,7.877,7.877v359.975C489.157,500.972,485.218,504.123,481.28,504.123z M30.72,488.369h441.895V144.148
	H30.72V488.369z"/>
<rect x="54.745" y="168.196" style="fill:#FFFFFF;" width="394.634" height="296.96"/>
<g>
	<path style="fill:#183651;" d="M496.246,144.148H7.877c-4.726,0-7.877-3.151-7.877-7.877c0-4.726,3.151-7.877,7.877-7.877h488.369
		c4.726,0,7.877,3.151,7.877,7.877C504.123,140.997,500.972,144.148,496.246,144.148z"/>
	<path style="fill:#183651;" d="M496.246,504.123H7.877c-4.726,0-7.877-3.151-7.877-7.877s3.151-7.877,7.877-7.877h488.369
		c4.726,0,7.877,3.151,7.877,7.877S500.972,504.123,496.246,504.123z"/>
	<path style="fill:#183651;" d="M252.062,75.618c-20.48,0-37.809-16.542-37.809-37.809C214.252,17.329,230.794,0,252.062,0
		c20.48,0,37.809,16.542,37.809,37.809C289.871,58.289,272.542,75.618,252.062,75.618z M252.062,15.754
		c-11.815,0-22.055,9.452-22.055,22.055c0,11.815,9.452,22.055,22.055,22.055c11.815,0,22.055-9.452,22.055-22.055
		S263.877,15.754,252.062,15.754z"/>
	<path style="fill:#183651;" d="M252.062,144.148c-4.726,0-7.877-3.151-7.877-7.877V67.742c0-4.726,3.151-7.877,7.877-7.877
		s7.877,3.151,7.877,7.877v68.529C259.938,140.997,256.788,144.148,252.062,144.148z"/>
	<rect x="295.385" y="195.348" style="fill:#183651;" width="15.754" height="15.754"/>
	<rect x="392.271" y="195.348" style="fill:#183651;" width="15.754" height="15.754"/>
	<rect x="246.548" y="195.348" style="fill:#183651;" width="15.754" height="15.754"/>
	<rect x="343.434" y="195.348" style="fill:#183651;" width="15.754" height="15.754"/>
</g>
<path style="fill:#FFFFFF;" d="M81.132,200.074c8.665,0,15.754,7.089,15.754,15.754v185.108c0,20.48,16.542,36.234,36.234,36.234
	l0,0c20.48,0,36.234-15.754,36.234-36.234V215.828c0-8.665,7.089-15.754,15.754-15.754H81.132z"/>
<path style="fill:#183651;" d="M133.12,445.046c-24.418,0-44.111-19.692-44.111-44.111V215.828c0-4.726-3.151-7.877-7.877-7.877
	s-7.877-3.151-7.877-7.877c0-4.726,3.151-7.877,7.877-7.877h103.975c4.726,0,7.877,3.151,7.877,7.877
	c0,4.726-3.151,7.877-7.877,7.877c-4.726,0-7.877,3.151-7.877,7.877v185.108C177.231,425.354,157.538,445.046,133.12,445.046z
	 M103.188,207.951c0.788,2.363,1.575,4.726,1.575,7.877v185.108c0,15.754,12.603,28.357,28.357,28.357s28.357-12.603,28.357-28.357
	V215.828c0-3.151,0.788-5.514,1.575-7.877H103.188z"/>
<path style="fill:#F05F50;" d="M96.886,300.898v100.037c0,20.48,16.542,36.234,36.234,36.234l0,0
	c20.48,0,36.234-15.754,36.234-36.234V300.898"/>
<path style="fill:#183651;" d="M133.12,445.046c-24.418,0-44.111-19.692-44.111-44.111V300.898c0-4.726,3.151-7.877,7.877-7.877
	s7.877,3.151,7.877,7.877v100.037c0,15.754,12.603,28.357,28.357,28.357s28.357-12.603,28.357-28.357V300.898
	c0-4.726,3.151-7.877,7.877-7.877c4.726,0,7.877,3.151,7.877,7.877v100.037C177.231,425.354,157.538,445.046,133.12,445.046z"/>
<rect x="390.695" y="248.123" style="fill:#F05F50;" width="32.295" height="170.929"/>
<rect x="332.406" y="304.837" style="fill:#4EBD9E;" width="32.295" height="114.215"/>
<rect x="274.117" y="268.603" style="fill:#2AA0DA;" width="32.295" height="149.662"/>
<rect x="215.828" y="304.837" style="fill:#FCBD5E;" width="32.295" height="114.215"/>
<g>
</g>
<g>
</g>
<g>
</g>
<g>
</g>
<g>
</g>
<g>
</g>
<g>
</g>
<g>
</g>
<g>
</g>
<g>
</g>
<g>
</g>
<g>
</g>
<g>
</g>
<g>
</g>
<g>
</g>
</svg>
