<?xml version="1.0" encoding="iso-8859-1"?>
<!-- Generator: Adobe Illustrator 19.0.0, SVG Export Plug-In . SVG Version: 6.00 Build 0)  -->
<svg version="1.1" id="Capa_1" xmlns="http://www.w3.org/2000/svg" xmlns:xlink="http://www.w3.org/1999/xlink" x="0px" y="0px"
	 viewBox="0 0 496.485 496.485" style="enable-background:new 0 0 496.485 496.485;" xml:space="preserve">
<circle style="fill:#FDBF5E;" cx="248.242" cy="248.242" r="248.242"/>
<polygon style="fill:#E1E6E9;" points="244.364,59.733 30.255,155.927 244.364,251.345 458.473,155.927 "/>
<path style="fill:#193651;" d="M244.364,258.327c-0.776,0-2.327,0-3.103-0.776L27.152,162.133c-2.327-1.551-3.879-3.879-3.879-6.206
	c0-3.103,1.552-5.43,3.879-6.206l214.109-96.194c1.552-0.776,3.879-0.776,5.43,0L460.8,149.721c2.327,0.776,3.879,3.879,3.879,6.206
	c0,3.103-1.552,5.43-3.879,6.206l-213.333,96.194C245.915,258.327,245.139,258.327,244.364,258.327z M47.321,155.927l197.042,88.436
	l197.042-88.436L244.364,67.491L47.321,155.927z"/>
<path style="fill:#FFFFFF;" d="M370.812,297.115V173.77l0,0c-79.127-36.461-174.545-36.461-253.673,0v122.57h253.673V297.115z"/>
<path style="fill:#193651;" d="M370.812,304.097H117.139c-3.879,0-6.982-3.103-6.982-6.982V173.77c0-3.103,1.552-5.43,3.879-6.206
	c39.564-18.618,84.558-27.927,129.552-27.927s89.988,9.309,129.552,27.927c2.327,0.776,3.879,3.879,3.879,6.206v122.57
	c0,1.552-0.776,3.879-2.327,4.655C374.691,303.321,373.139,304.097,370.812,304.097z M124.121,290.133H363.83V178.424
	c-37.236-16.291-78.352-24.824-119.467-24.824c-41.891,0-83.006,8.533-119.467,24.824v111.709H124.121z"/>
<path style="fill:#E1E6E9;" d="M145.067,269.188v-76.8c31.03-11.636,65.164-17.842,99.297-17.842s68.267,6.206,99.297,17.842v76.8
	H145.067z"/>
<path style="fill:#193651;" d="M65.939,247.467c-3.879,0-6.982-3.103-6.982-6.982v-69.042c0-3.879,3.103-6.982,6.982-6.982
	c3.879,0,6.982,3.103,6.982,6.982v69.042C72.921,244.364,69.818,247.467,65.939,247.467z"/>
<path style="fill:#4FBF9F;" d="M422.788,384H74.473c21.721,0,38.788,17.067,38.788,38.788c0,21.721-17.067,38.788-38.788,38.788
	h348.315c21.721,0,38.788-17.067,38.788-38.788C461.576,401.842,443.733,384,422.788,384z"/>
<path style="fill:#193651;" d="M422.788,377.018H74.473c-3.879,0-6.982,3.103-6.982,6.982s3.103,6.982,6.982,6.982
	c17.842,0,31.806,13.964,31.806,31.806c0,17.842-13.964,31.806-31.806,31.806c-3.879,0-6.982,3.103-6.982,6.982
	s3.103,6.982,6.982,6.982h348.315c25.6,0,45.77-20.945,45.77-45.77S447.612,377.018,422.788,377.018z M422.788,455.37H107.055
	c7.758-8.533,12.412-19.394,12.412-31.806s-4.655-23.273-12.412-31.806h314.958c17.842,0,31.806,13.964,31.806,31.806
	C454.594,440.63,439.855,455.37,422.788,455.37z"/>
<path style="fill:#FFFFFF;" d="M139.636,438.303c0.776-4.655,0.776-10.085,0.776-15.515c0-5.43,0-10.085-0.776-15.515h283.152
	c6.206,0,11.636,6.982,11.636,15.515s-5.43,15.515-11.636,15.515H139.636z"/>
<g>
	<rect x="299.442" y="416.582" style="fill:#193651;" width="13.964" height="13.964"/>
	<rect x="335.903" y="416.582" style="fill:#193651;" width="13.964" height="13.964"/>
	<rect x="373.139" y="416.582" style="fill:#193651;" width="13.964" height="13.964"/>
</g>
<circle style="fill:#FFFFFF;" cx="74.473" cy="423.564" r="38.788"/>
<path style="fill:#193651;" d="M74.473,469.333c-25.6,0-45.77-20.945-45.77-45.77c0-25.6,20.945-45.77,45.77-45.77
	c25.6,0,45.77,20.945,45.77,45.77S99.297,469.333,74.473,469.333z M74.473,391.758c-17.842,0-31.806,13.964-31.806,31.806
	c0,17.842,13.964,31.806,31.806,31.806s31.806-13.964,31.806-31.806C106.279,405.721,91.539,391.758,74.473,391.758z"/>
<polygon style="fill:#F16051;" points="234.279,408.048 176.873,408.048 176.873,328.145 205.576,345.988 234.279,328.145 "/>
<g>
	<rect x="200.145" y="214.885" style="fill:#193651;" width="13.964" height="13.964"/>
	<rect x="237.382" y="214.885" style="fill:#193651;" width="13.964" height="13.964"/>
	<rect x="274.618" y="214.885" style="fill:#193651;" width="13.964" height="13.964"/>
</g>
<path style="fill:#FFFFFF;" d="M399.515,313.406c20.17,0,36.461,16.291,36.461,36.461c0-20.17,16.291-36.461,36.461-36.461
	c-20.17,0-36.461-16.291-36.461-36.461C435.976,297.115,419.685,313.406,399.515,313.406z"/>
<path style="fill:#193651;" d="M435.976,356.849c-3.879,0-6.982-3.103-6.982-6.982c0-16.291-13.188-29.479-29.479-29.479
	c-3.879,0-6.982-3.103-6.982-6.982c0-3.879,3.103-6.982,6.982-6.982c16.291,0,29.479-13.188,29.479-29.479
	c0-3.879,3.103-6.982,6.982-6.982s6.982,3.103,6.982,6.982c0,16.291,13.188,29.479,29.479,29.479c3.879,0,6.982,3.103,6.982,6.982
	c0,3.879-3.103,6.982-6.982,6.982c-16.291,0-29.479,13.188-29.479,29.479C442.958,353.745,439.855,356.849,435.976,356.849z
	 M422.788,313.406c4.655,3.103,9.309,7.758,12.412,12.412c3.103-4.655,7.758-9.309,12.412-12.412
	c-4.655-3.103-9.309-7.758-12.412-12.412C432.097,305.648,428.218,310.303,422.788,313.406z"/>
<path style="fill:#FFFFFF;" d="M399.515,49.648c20.17,0,36.461,16.291,36.461,36.461c0-20.17,16.291-36.461,36.461-36.461
	c-20.17,0-36.461-16.291-36.461-36.461C435.976,33.358,419.685,49.648,399.515,49.648z"/>
<path style="fill:#193651;" d="M435.976,93.091c-3.879,0-6.982-3.103-6.982-6.982c0-16.291-13.188-29.479-29.479-29.479
	c-3.879,0-6.982-3.103-6.982-6.982s3.103-6.982,6.982-6.982c16.291,0,29.479-13.188,29.479-29.479c0-3.879,3.103-6.982,6.982-6.982
	s6.982,3.103,6.982,6.982c0,16.291,13.188,29.479,29.479,29.479c3.879,0,6.982,3.103,6.982,6.982s-3.103,6.982-6.982,6.982
	c-16.291,0-29.479,13.188-29.479,29.479C442.958,89.988,439.855,93.091,435.976,93.091z M422.788,49.648
	c4.655,3.103,9.309,7.758,12.412,12.412c3.103-4.655,7.758-9.309,12.412-12.412c-4.655-3.103-9.309-7.758-12.412-12.412
	C432.097,41.891,428.218,46.545,422.788,49.648z"/>
<path style="fill:#FFFFFF;" d="M22.497,49.648c20.17,0,36.461,16.291,36.461,36.461c0-20.17,16.291-36.461,36.461-36.461
	c-20.17,0-36.461-16.291-36.461-36.461C58.958,33.358,42.667,49.648,22.497,49.648z"/>
<path style="fill:#193651;" d="M58.958,93.091c-3.879,0-6.982-3.103-6.982-6.982c0-16.291-13.188-29.479-29.479-29.479
	c-3.879,0-6.982-3.103-6.982-6.982s3.103-6.982,6.982-6.982c16.291,0,29.479-13.188,29.479-29.479c0-3.879,3.103-6.982,6.982-6.982
	s6.982,3.103,6.982,6.982c0,16.291,13.188,29.479,29.479,29.479c3.879,0,6.982,3.103,6.982,6.982s-3.103,6.982-6.982,6.982
	c-16.291,0-29.479,13.188-29.479,29.479C65.939,89.988,62.836,93.091,58.958,93.091z M46.545,49.648
	c4.655,3.103,9.309,7.758,12.412,12.412c3.103-4.655,7.758-9.309,12.412-12.412c-4.655-3.103-8.533-7.758-12.412-12.412
	C55.855,41.891,51.976,46.545,46.545,49.648z"/>
<g>
</g>
<g>
</g>
<g>
</g>
<g>
</g>
<g>
</g>
<g>
</g>
<g>
</g>
<g>
</g>
<g>
</g>
<g>
</g>
<g>
</g>
<g>
</g>
<g>
</g>
<g>
</g>
<g>
</g>
</svg>
